#N canvas 232 76 949 722 10;
#X declare -lib mrpeach;
#X declare -lib cyclone;
#X declare -lib cyclone;
#X declare -lib cyclone;
#X declare -lib cyclone;
#X declare -lib cyclone;
#X declare -lib cyclone;
#X declare -lib cyclone;
#X declare -lib cyclone;
#X declare -lib cyclone;
#X declare -lib cyclone;
#X declare -lib cyclone;
#X declare -lib cyclone;
#X declare -lib cyclone;
#X declare -lib cyclone;
#X declare -lib cyclone;
#X declare -lib cyclone;
#X declare -lib cyclone;
#X declare -lib cyclone;
#X declare -lib cyclone;
#X declare -lib cyclone;
#X declare -lib cyclone;
#X declare -lib cyclone;
#X declare -lib cyclone;
#X declare -lib cyclone;
#X declare -lib cyclone;
#X declare -lib cyclone;
#X declare -lib cyclone;
#X declare -lib cyclone;
#X declare -lib cyclone;
#X declare -lib cyclone;
#X declare -lib cyclone;
#X declare -lib cyclone;
#X declare -lib mrpeach;
#X declare -lib cyclone;
#X declare -lib cyclone;
#X declare -lib cyclone;
#X declare -lib cyclone;
#X declare -lib cyclone;
#X declare -lib cyclone;
#X declare -lib cyclone;
#X declare -lib cyclone;
#X declare -lib cyclone;
#X declare -lib cyclone;
#X declare -lib cyclone;
#X declare -lib cyclone;
#X declare -lib cyclone;
#X declare -lib cyclone;
#X declare -lib cyclone;
#X declare -lib cyclone;
#X declare -lib cyclone;
#X declare -lib cyclone;
#X declare -lib cyclone;
#X declare -lib cyclone;
#X declare -lib cyclone;
#X declare -lib cyclone;
#X declare -lib cyclone;
#X declare -lib cyclone;
#X declare -lib cyclone;
#X declare -lib cyclone;
#X declare -lib cyclone;
#X declare -lib cyclone;
#X declare -lib cyclone;
#X declare -lib cyclone;
#X declare -lib cyclone;
#X declare -lib cyclone;
#X declare -lib mrpeach;
#X obj 106 -142 hsl 350 30 40 2000 0 0 empty empty frecuencia_valor
-2 -12 0 20 -4034 -1 -1 452 1;
#X floatatom 103 -197 5 0 0 0 - chord_note_2 -;
#N canvas 180 72 672 644 synth_guts 1;
#X obj 156 488 outlet~;
#X obj 202 -34 hsl 128 15 40 2000 0 0 empty empty valor_frecuencia
-2 -8 0 10 -4034 -1 -1 162 1;
#X obj 199 2 int;
#N canvas 552 22 773 845 granular2 0;
#X obj 57 405 phasor~;
#X obj 58 585 *~ -1;
#X obj 58 610 +~ 1;
#X obj 158 699 sig~ 1;
#X obj 223 707 cos~;
#X obj 159 732 -~;
#X obj 160 757 *~ 0.5;
#X obj 81 786 *~;
#X obj 89 672 samphold~;
#X obj 58 699 *~;
#X obj 90 644 sig~;
#X floatatom 167 384 5 0 0 0 - - -;
#X floatatom 120 307 10 0 0 0 - - -;
#X floatatom 89 367 5 0 0 0 - - -;
#X floatatom 251 233 5 0 0 0 - - -;
#X obj 251 254 t b f;
#X obj 135 869 *~;
#X obj 167 358 / 44.1;
#X obj 444 554 *~ -1;
#X obj 445 587 +~ 1;
#X obj 538 683 sig~ 1;
#X obj 602 690 cos~;
#X obj 539 714 -~;
#X obj 540 739 *~ 0.5;
#X obj 467 771 *~;
#X obj 479 652 samphold~;
#X obj 445 679 *~;
#X obj 480 624 sig~;
#X obj 465 467 +~ 0.5;
#X obj 465 489 wrap~;
#X obj 118 35 vsl 15 128 100 30000 0 0 empty empty empty 0 -8 0 8 -262144
-1 -1 0 1;
#X obj 118 171 t b f;
#X obj 251 153 vsl 15 73 -36 36 0 0 empty empty empty 0 -8 0 8 -262144
-1 -1 0 1;
#X obj 120 328 expr (pow(2 \, ($f2/12)) - 1) * (44100/$f1);
#X floatatom 154 825 5 0 0 0 - - -;
#X text 268 217 -36;
#X text 274 145 36;
#X text 137 28 30000;
#X text 135 152 100;
#X text 83 7 window width;
#X text 193 121 Transposition (half-steps);
#X text 515 886 www.pd-tutorial.com;
#X text 532 859 Johannes Kreidler;
#X obj 198 14 inlet~;
#X obj 200 919 outlet~;
#X obj 255 918 outlet~;
#X obj 246 13 inlet~;
#X obj 236 88 delwrite~ b2 5000;
#X obj 81 743 vd~ b2;
#X obj 468 722 vd~ b2;
#X obj 210 787 loadbang;
#X msg 242 812 1;
#X floatatom 42 34 5 0 0 0 - granular_width -;
#X floatatom 198 147 5 0 0 0 - granular_transposition -;
#X obj 335 862 hsl 128 15 0 1 0 0 empty empty empty -2 -8 0 10 -262144
-1 -1 0 1;
#X floatatom 358 829 5 0 0 0 - granular_volume -;
#X connect 0 0 1 0;
#X connect 0 0 4 0;
#X connect 0 0 8 1;
#X connect 0 0 28 0;
#X connect 1 0 2 0;
#X connect 2 0 9 0;
#X connect 3 0 5 0;
#X connect 4 0 5 1;
#X connect 5 0 6 0;
#X connect 6 0 7 1;
#X connect 7 0 16 0;
#X connect 8 0 9 1;
#X connect 9 0 48 0;
#X connect 10 0 8 0;
#X connect 11 0 27 0;
#X connect 11 0 10 0;
#X connect 12 0 17 0;
#X connect 12 0 33 0;
#X connect 13 0 0 0;
#X connect 14 0 15 0;
#X connect 15 0 12 0;
#X connect 15 1 33 1;
#X connect 16 0 44 0;
#X connect 16 0 45 0;
#X connect 17 0 11 0;
#X connect 18 0 19 0;
#X connect 19 0 26 0;
#X connect 20 0 22 0;
#X connect 21 0 22 1;
#X connect 22 0 23 0;
#X connect 23 0 24 1;
#X connect 24 0 16 0;
#X connect 25 0 26 1;
#X connect 26 0 49 0;
#X connect 27 0 25 0;
#X connect 28 0 29 0;
#X connect 29 0 18 0;
#X connect 29 0 25 1;
#X connect 29 0 21 0;
#X connect 30 0 31 0;
#X connect 31 0 14 0;
#X connect 31 1 12 0;
#X connect 32 0 14 0;
#X connect 33 0 13 0;
#X connect 34 0 16 1;
#X connect 43 0 47 0;
#X connect 46 0 47 0;
#X connect 48 0 7 0;
#X connect 49 0 24 0;
#X connect 50 0 51 0;
#X connect 51 0 34 0;
#X connect 52 0 30 0;
#X connect 53 0 32 0;
#X connect 54 0 16 1;
#X connect 55 0 54 0;
#X restore 323 342 pd granular2;
#N canvas 672 115 553 729 reverbL 0;
#X obj 151 330 reverb;
#X floatatom 114 195 5 0 0 2 output - -;
#X floatatom 152 228 5 0 0 2 liveness - -;
#X floatatom 177 269 5 0 0 2 crossover_freq(HZ) - -;
#X floatatom 200 307 5 0 0 2 high_frequency_damping - -;
#X obj 92 103 hsl 128 15 0 100 0 0 empty empty empty -2 -8 0 10 -262144
-1 -1 11430 1;
#X obj 159 150 hsl 128 15 0 100 0 0 empty empty empty -2 -8 0 10 -262144
-1 -1 0 1;
#X obj 209 192 hsl 128 15 0 5000 0 0 empty empty empty -2 -8 0 10 -262144
-1 -1 7620 1;
#X obj 101 132 int;
#X obj 157 168 int;
#X obj 206 210 int;
#X obj 297 236 hsl 128 15 0 100 0 0 empty empty empty -2 -8 0 10 -262144
-1 -1 11430 1;
#X obj 294 254 int;
#X obj 52 271 inlet~;
#X obj 172 417 outlet~;
#X msg 93 72 90;
#X msg 158 124 0;
#X msg 207 170 3000;
#X msg 294 217 90;
#X obj 302 30 loadbang;
#N canvas 723 121 450 300 reverb_slider_L 0;
#X floatatom 39 85 5 0 0 0 - reverb_volume_L -;
#X floatatom 86 88 5 0 0 0 - reverb_liveness_L -;
#X floatatom 143 88 5 0 0 0 - reverb_cutoff_L -;
#X floatatom 194 92 5 0 0 0 - reverb_damping_L -;
#X obj 39 158 outlet;
#X obj 86 159 outlet;
#X obj 137 160 outlet;
#X obj 194 165 outlet;
#X connect 0 0 4 0;
#X connect 1 0 5 0;
#X connect 2 0 6 0;
#X connect 3 0 7 0;
#X restore 53 40 pd reverb_slider_L;
#X connect 0 0 14 0;
#X connect 0 1 14 0;
#X connect 0 2 14 0;
#X connect 0 3 14 0;
#X connect 1 0 0 1;
#X connect 2 0 0 2;
#X connect 3 0 0 3;
#X connect 4 0 0 4;
#X connect 5 0 8 0;
#X connect 6 0 9 0;
#X connect 7 0 10 0;
#X connect 8 0 1 0;
#X connect 9 0 2 0;
#X connect 10 0 3 0;
#X connect 11 0 12 0;
#X connect 12 0 4 0;
#X connect 13 0 0 0;
#X connect 15 0 5 0;
#X connect 16 0 6 0;
#X connect 17 0 7 0;
#X connect 18 0 11 0;
#X connect 19 0 15 0;
#X connect 19 0 16 0;
#X connect 19 0 17 0;
#X connect 19 0 18 0;
#X connect 20 0 5 0;
#X connect 20 1 6 0;
#X connect 20 2 7 0;
#X connect 20 3 11 0;
#X restore 306 461 pd reverbL;
#X obj 66 338 *~;
#X obj 323 362 *~;
#X obj 305 492 outlet~;
#N canvas 993 111 553 729 reverbR 0;
#X obj 151 330 reverb;
#X floatatom 114 195 5 0 0 2 output - -;
#X floatatom 152 228 5 0 0 2 liveness - -;
#X floatatom 177 269 5 0 0 2 crossover_freq(HZ) - -;
#X floatatom 200 307 5 0 0 2 high_frequency_damping - -;
#X obj 92 103 hsl 128 15 0 100 0 0 empty empty empty -2 -8 0 10 -262144
-1 -1 11430 1;
#X obj 159 150 hsl 128 15 0 100 0 0 empty empty empty -2 -8 0 10 -262144
-1 -1 0 1;
#X obj 209 192 hsl 128 15 0 5000 0 0 empty empty empty -2 -8 0 10 -262144
-1 -1 7620 1;
#X obj 101 132 int;
#X obj 157 168 int;
#X obj 206 210 int;
#X obj 297 236 hsl 128 15 0 100 0 0 empty empty empty -2 -8 0 10 -262144
-1 -1 11430 1;
#X obj 294 254 int;
#X obj 52 271 inlet~;
#X obj 172 417 outlet~;
#X msg 93 72 90;
#X msg 158 124 0;
#X msg 207 170 3000;
#X msg 294 217 90;
#X obj 302 30 loadbang;
#N canvas 717 121 450 300 reverb_slider 0;
#X floatatom 39 85 5 0 0 0 - reverb_volume_R -;
#X floatatom 86 88 5 0 0 0 - reverb_liveness_R -;
#X floatatom 143 88 5 0 0 0 - reverb_cutoff_R -;
#X floatatom 194 92 5 0 0 0 - reverb_damping_R -;
#X obj 39 158 outlet;
#X obj 86 159 outlet;
#X obj 137 160 outlet;
#X obj 194 165 outlet;
#X connect 0 0 4 0;
#X connect 1 0 5 0;
#X connect 2 0 6 0;
#X connect 3 0 7 0;
#X restore 53 40 pd reverb_slider;
#X connect 0 0 14 0;
#X connect 0 1 14 0;
#X connect 0 2 14 0;
#X connect 0 3 14 0;
#X connect 1 0 0 1;
#X connect 2 0 0 2;
#X connect 3 0 0 3;
#X connect 4 0 0 4;
#X connect 5 0 8 0;
#X connect 6 0 9 0;
#X connect 7 0 10 0;
#X connect 8 0 1 0;
#X connect 9 0 2 0;
#X connect 10 0 3 0;
#X connect 11 0 12 0;
#X connect 12 0 4 0;
#X connect 13 0 0 0;
#X connect 15 0 5 0;
#X connect 16 0 6 0;
#X connect 17 0 7 0;
#X connect 18 0 11 0;
#X connect 19 0 15 0;
#X connect 19 0 16 0;
#X connect 19 0 17 0;
#X connect 19 0 18 0;
#X connect 20 0 5 0;
#X connect 20 1 6 0;
#X connect 20 2 7 0;
#X connect 20 3 11 0;
#X restore 156 443 pd reverbR;
#X obj 95 337 *~;
#X floatatom 183 -65 5 0 0 0 - freq_valor_control -;
#X obj 369 363 *~;
#N canvas 709 362 465 391 accel_attack 1;
#X obj 110 192 outlet;
#X obj 298 281 line;
#X msg 295 257 \$1 300;
#X obj 243 232 spigot;
#X obj 275 211 tgl 15 0 empty empty empty 17 7 0 10 -262144 -1 -1 0
1;
#N canvas 403 54 713 731 accel_all_note_attack 0;
#X floatatom 78 46 5 0 0 0 - accelX_raw -;
#X floatatom 124 308 5 0 0 0 - - -;
#X obj 124 367 line;
#X floatatom 124 388 5 0 0 0 - - accel_reverb;
#X floatatom 78 90 5 0 0 0 - - -;
#X msg 124 346 \$1 200;
#X obj 78 69 + 0.2;
#X floatatom 265 38 5 0 0 0 - accelY_raw -;
#X floatatom 311 300 5 0 0 0 - - -;
#X obj 311 359 line;
#X floatatom 311 380 5 0 0 0 - - accel_reverb;
#X floatatom 265 82 5 0 0 0 - - -;
#X msg 311 338 \$1 200;
#X obj 265 61 + 0.2;
#X floatatom 449 39 5 0 0 0 - accelZ_raw -;
#X floatatom 495 301 5 0 0 0 - - -;
#X obj 495 360 line;
#X floatatom 495 381 5 0 0 0 - - accel_reverb;
#X floatatom 449 83 5 0 0 0 - - -;
#X msg 495 339 \$1 200;
#X obj 449 62 + 0.2;
#X obj 242 488 expr $f1+$f2+$f3;
#X floatatom 242 510 5 0 0 0 - - -;
#X obj 111 227 abs;
#X obj 226 193 abs;
#X obj 427 202 abs;
#X floatatom 242 550 5 0 0 0 - - -;
#X obj 242 573 outlet;
#X obj 242 529 / 5;
#X connect 0 0 6 0;
#X connect 1 0 5 0;
#X connect 1 0 21 0;
#X connect 2 0 3 0;
#X connect 4 0 23 0;
#X connect 5 0 2 0;
#X connect 6 0 4 0;
#X connect 7 0 13 0;
#X connect 8 0 12 0;
#X connect 8 0 21 1;
#X connect 9 0 10 0;
#X connect 11 0 24 0;
#X connect 12 0 9 0;
#X connect 13 0 11 0;
#X connect 14 0 20 0;
#X connect 15 0 19 0;
#X connect 15 0 21 2;
#X connect 16 0 17 0;
#X connect 18 0 25 0;
#X connect 19 0 16 0;
#X connect 20 0 18 0;
#X connect 21 0 22 0;
#X connect 22 0 28 0;
#X connect 23 0 1 0;
#X connect 24 0 8 0;
#X connect 25 0 15 0;
#X connect 26 0 27 0;
#X connect 28 0 26 0;
#X restore 244 6 pd accel_all_note_attack;
#X floatatom 230 75 5 0 0 0 - - -;
#X obj 314 175 < 0.95;
#X floatatom 300 312 5 0 0 0 - - -;
#X connect 1 0 8 0;
#X connect 2 0 1 0;
#X connect 3 0 2 0;
#X connect 4 0 3 1;
#X connect 5 0 6 0;
#X connect 6 0 7 0;
#X connect 6 0 3 0;
#X connect 7 0 4 0;
#X connect 8 0 0 0;
#X restore 245 -3 pd accel_attack;
#N canvas 387 131 450 300 midi 0;
#X obj 53 128 outlet;
#X obj 130 125 outlet;
#X obj 44 37 notein;
#X text 86 37 MIDI in;
#X obj 44 64 mtof;
#X obj 108 64 / 127;
#X text 115 79 amp.;
#X text 48 80 freq.;
#X connect 2 0 4 0;
#X connect 2 1 5 0;
#X connect 4 0 0 0;
#X connect 5 0 1 0;
#X restore 69 -1 pd midi;
#X obj 323 50 polywavesynth example 32 1;
#X floatatom 421 -6 5 0 0 0 - - -;
#X obj 67 48 polywavesynth example 32 1;
#X obj 220 405 gpan~;
#N canvas 557 261 716 519 motion_value_pan 0;
#X floatatom 307 146 5 0 0 0 - motionYaw_raw -;
#X obj 146 184 abs;
#X floatatom 146 203 5 0 0 0 - - -;
#X floatatom 146 242 5 0 0 0 - - -;
#X text 98 99 Restar o sumar la diferencia a 3.14 para calibrar;
#X obj 145 357 outlet;
#X obj 144 287 abs;
#X obj 146 222 expr (($f1/3.14)-1)*-1;
#X obj 307 166 expr $f1 + $f2;
#X floatatom 307 186 5 0 0 0 - - -;
#X floatatom 387 147 5 0 0 0 - - -;
#X obj 410 124 loadbang;
#X msg 410 104 1;
#X obj 534 146 inlet;
#X connect 0 0 8 0;
#X connect 1 0 2 0;
#X connect 2 0 7 0;
#X connect 3 0 6 0;
#X connect 6 0 5 0;
#X connect 7 0 3 0;
#X connect 8 0 9 0;
#X connect 9 0 1 0;
#X connect 10 0 8 1;
#X connect 11 0 10 0;
#X connect 12 0 11 0;
#X connect 13 0 8 1;
#X restore 438 423 pd motion_value_pan;
#N canvas 786 229 761 495 accel_rate 0;
#X obj 274 220 hsl 128 15 0 1 0 0 empty empty empty -2 -8 0 10 -262144
-1 -1 0 1;
#X text 247 104 He puesto un spigot para que controle el paso del numero
de frecuencia segun el movimiento del movil.;
#N canvas 658 395 724 443 accel_volume 0;
#X obj 271 355 outlet;
#X floatatom 173 8 5 0 0 0 - accelX_raw -;
#X obj 186 145 line;
#X msg 179 121 \$1 300;
#X obj 250 29 abs;
#X floatatom 166 196 5 0 0 0 - - -;
#X obj 136 313 spigot;
#X obj 171 284 tgl 15 0 empty empty empty 17 7 0 10 -262144 -1 -1 0
1;
#X floatatom 130 362 5 0 0 0 - - -;
#X obj 173 250 < 0.9;
#X obj 365 219 spigot;
#X obj 400 179 tgl 15 0 empty empty empty 17 7 0 10 -262144 -1 -1 0
1;
#X obj 394 127 > 0.006;
#X connect 1 0 4 0;
#X connect 2 0 5 0;
#X connect 2 0 6 0;
#X connect 3 0 2 0;
#X connect 4 0 3 0;
#X connect 5 0 9 0;
#X connect 6 0 8 0;
#X connect 7 0 6 1;
#X connect 8 0 12 0;
#X connect 8 0 10 0;
#X connect 9 0 7 0;
#X connect 10 0 0 0;
#X connect 11 0 10 1;
#X connect 12 0 11 0;
#X restore 248 149 pd accel_volume;
#X text 247 132 modulador de volumen controlado por Accel X;
#X floatatom 274 242 5 0 0 0 - - -;
#X obj 276 261 > 1;
#X obj 338 297 tgl 50 0 empty empty empty 17 7 0 10 -257985 -1 -1 0
1;
#X obj 294 190 spigot;
#X obj 327 172 tgl 15 0 empty empty empty 17 7 0 10 -262144 -1 -1 1
1;
#X obj 363 149 loadbang;
#X obj 138 334 outlet;
#X connect 0 0 4 0;
#X connect 0 0 10 0;
#X connect 2 0 7 0;
#X connect 4 0 5 0;
#X connect 5 0 6 0;
#X connect 7 0 0 0;
#X connect 8 0 7 1;
#X connect 9 0 8 0;
#X restore 219 343 pd accel_rate;
#X obj 441 402 hsl 128 15 -10 10 0 0 empty empty Calibración_panning
-2 -8 0 10 -162280 -1 -1 0 1;
#X connect 1 0 2 0;
#X connect 2 0 14 0;
#X connect 2 0 16 0;
#X connect 3 0 6 0;
#X connect 3 1 11 0;
#X connect 4 0 7 0;
#X connect 5 0 17 0;
#X connect 6 0 17 1;
#X connect 8 0 0 0;
#X connect 9 0 17 0;
#X connect 10 0 1 0;
#X connect 11 0 17 1;
#X connect 12 0 15 0;
#X connect 13 0 16 0;
#X connect 13 1 16 1;
#X connect 14 0 3 0;
#X connect 14 1 3 1;
#X connect 15 0 16 1;
#X connect 15 0 14 1;
#X connect 16 0 5 0;
#X connect 16 1 9 0;
#X connect 17 0 8 0;
#X connect 17 1 4 0;
#X connect 18 0 17 2;
#X connect 19 0 11 1;
#X connect 19 0 6 1;
#X connect 19 0 9 1;
#X connect 19 0 5 1;
#X connect 20 0 18 0;
#X restore 276 351 pd synth_guts;
#X obj 367 373 tgl 40 0 empty empty ON/OFF 0 52 0 20 -262144 -1 -1
1 1;
#X obj 367 350 loadbang;
#X obj 276 375 *~;
#X obj 282 430 dac~;
#X floatatom 103 -93 5 0 0 0 - - freq_valor_control;
#X obj 103 -111 int;
#N canvas 207 22 843 815 phone_values 0;
#X obj 63 175 unpackOSC;
#X floatatom 415 178 3 0 0 0 - - -;
#X floatatom 442 178 3 0 0 0 - - -;
#X floatatom 469 178 3 0 0 0 - - -;
#X floatatom 496 178 3 0 0 0 - - -;
#X floatatom 523 179 5 0 0 0 - - -;
#X obj 415 152 unpack 0 0 0 0 0;
#X msg 91 35 status;
#X floatatom 294 99 9 0 0 0 - - -;
#X obj 475 125 tgl 15 0 empty empty empty 17 7 0 10 -4034 -1 -1 0 1
;
#X floatatom 354 125 9 0 0 0 - - -;
#X text 187 99 bytes received:;
#X text 202 123 total bytes received:;
#X text 372 177 from:;
#X obj 294 66 route received total from multicast;
#X obj 91 6 import mrpeach;
#X floatatom 40 387 5 0 0 3 tiltX_raw - tiltX_raw;
#X floatatom 116 387 5 0 0 3 tiltY_raw - tiltY_raw;
#X floatatom 177 459 5 0 0 3 accelX_raw - accelX_raw;
#X floatatom 249 460 5 0 0 3 accelY_raw - accelY_raw;
#X floatatom 322 458 5 0 0 3 accelZ_raw - accelZ_raw;
#X floatatom 405 420 5 0 0 3 gyroRoll_raw - gyroRoll_raw;
#X floatatom 485 415 5 0 0 3 gyroPitch_raw - gyroPitch_raw;
#X floatatom 569 416 5 0 0 3 gyroYaw_raw - gyroYaw_raw;
#X floatatom 567 349 5 0 0 3 motionRoll_raw - motionRoll_raw;
#X floatatom 668 348 5 0 0 3 motionPitch_raw - motionPitch_raw;
#X floatatom 774 349 5 0 0 3 motionYaw_raw - motionYaw_raw;
#X msg 268 23 reset;
#X obj 69 219 routeOSC /allsensors;
#X obj 66 240 unpack 0 0 0 0 0 0 0 0 0 0 0 0;
#X floatatom 655 268 5 0 0 3 compass_raw - compass_raw;
#X obj 31 21 inlet;
#X obj 91 105 udpreceive 54326;
#X connect 0 0 28 0;
#X connect 6 0 1 0;
#X connect 6 1 2 0;
#X connect 6 2 3 0;
#X connect 6 3 4 0;
#X connect 6 4 5 0;
#X connect 7 0 32 0;
#X connect 14 0 8 0;
#X connect 14 1 10 0;
#X connect 14 2 6 0;
#X connect 14 3 9 0;
#X connect 27 0 32 0;
#X connect 28 0 29 0;
#X connect 29 0 16 0;
#X connect 29 1 17 0;
#X connect 29 2 18 0;
#X connect 29 3 19 0;
#X connect 29 4 20 0;
#X connect 29 5 21 0;
#X connect 29 6 22 0;
#X connect 29 7 23 0;
#X connect 29 8 24 0;
#X connect 29 9 25 0;
#X connect 29 10 26 0;
#X connect 29 11 30 0;
#X connect 31 0 32 0;
#X connect 32 0 0 0;
#X connect 32 1 14 0;
#X restore -73 455 pd phone_values;
#N canvas 46 187 941 409 value_changes 0;
#X floatatom 103 66 5 0 0 0 - tiltX_raw -;
#X floatatom 215 66 5 0 0 0 - tiltY_raw -;
#X obj 129 99 expr ($f1+1)*12+48;
#X floatatom 129 121 5 0 0 3 tilt_X - tilt_X;
#X obj 257 101 expr ($f1+1)*12+48;
#X floatatom 257 123 5 0 0 3 tilt_Y - tilt_Y;
#X obj 282 -57 expr ($f1+1);
#X floatatom 289 -31 5 0 0 0 - - -;
#X obj 220 -98 expr ($f1+1);
#X floatatom 227 -72 5 0 0 0 - - -;
#X obj 373 -92 * 11;
#X floatatom 373 -70 5 0 0 0 - - tiltX_freq;
#X floatatom 406 -20 5 0 0 0 - - -;
#X floatatom 617 18 5 0 0 0 tiltY_freq - tiltY_freq;
#N canvas 843 133 450 300 compass_note 0;
#X floatatom 71 82 5 0 0 0 - compass_raw -;
#X text 230 94 rango brujula: 0 - 360;
#X floatatom 73 168 5 0 0 0 - - compass_note;
#X obj 72 129 expr $f1/13.4;
#X connect 0 0 3 0;
#X connect 3 0 2 0;
#X restore 491 72 pd compass_note;
#N canvas 437 156 782 572 accel_reverb 0;
#X floatatom 68 36 5 0 0 0 - gyroYaw_raw -;
#X obj 114 277 * 13.4;
#X floatatom 114 298 5 0 0 0 - - -;
#X obj 114 357 line;
#X floatatom 114 378 5 0 0 0 - - accel_reverb;
#X text 239 62 sistema de conversión de negativos a positivos;
#X text 280 118 OJO: tener cuidado con el orden de las conexiones \,
conectar de derecha a izquierda el orden de bang.;
#X floatatom 68 80 5 0 0 0 - - -;
#X msg 114 336 \$1 200;
#X obj 488 235 hsl 128 15 100 1000 0 0 empty empty empty -2 -8 0 10
-262144 -1 -1 0 1;
#X floatatom 311 347 5 0 0 0 - - -;
#X floatatom 350 349 5 0 0 0 - - -;
#X obj 352 291 line;
#X msg 348 256 \$1 500;
#X msg 407 171 reset;
#X obj 274 181 metro 200;
#X obj 258 157 tgl 15 0 empty empty empty 17 7 0 10 -262144 -1 -1 0
1;
#X obj 277 214 bng 15 250 50 0 empty empty empty 17 7 0 10 -262144
-1 -1;
#X obj 310 214 count 100;
#X obj 68 59 + 0.2;
#X obj 95 153 abs;
#X connect 0 0 19 0;
#X connect 1 0 2 0;
#X connect 2 0 8 0;
#X connect 3 0 4 0;
#X connect 7 0 20 0;
#X connect 8 0 3 0;
#X connect 12 0 11 0;
#X connect 13 0 12 0;
#X connect 15 0 17 0;
#X connect 16 0 15 0;
#X connect 17 0 18 0;
#X connect 18 0 13 0;
#X connect 18 0 10 0;
#X connect 19 0 7 0;
#X connect 20 0 1 0;
#X restore 491 139 pd accel_reverb;
#N canvas 730 277 600 541 pitch_bend 0;
#X floatatom 92 162 5 0 0 0 - gyroPitch_raw -;
#X obj 91 269 line;
#X floatatom 91 347 5 0 0 0 - - gyropitch_bend;
#X msg 91 248 \$1 50;
#X obj 91 309 line;
#X floatatom 91 328 5 0 0 0 - - -;
#X msg 91 290 \$1 20;
#X obj 97 204 / 2;
#X connect 0 0 7 0;
#X connect 1 0 6 0;
#X connect 3 0 1 0;
#X connect 4 0 5 0;
#X connect 5 0 2 0;
#X connect 6 0 4 0;
#X connect 7 0 3 0;
#X restore 491 117 pd pitch_bend;
#X obj 406 -42 * 8;
#X obj 500 -21 expr ($f1-16)*-1;
#X text 497 -50 Se multiplica por la mitad del valor mas alto \, y
luego se resta por el valor mas alto;
#N canvas 403 54 713 731 accel_all_note 0;
#X floatatom 78 46 5 0 0 0 - accelX_raw -;
#X obj 83 180 spigot;
#X obj 116 159 tgl 15 0 empty empty empty 17 7 0 10 -262144 -1 -1 0
1;
#X floatatom 85 250 5 0 0 0 - - -;
#X obj 178 215 * -1;
#X floatatom 178 248 5 0 0 0 - - -;
#X obj 218 125 < 0;
#X obj 179 175 spigot;
#X obj 211 147 tgl 15 0 empty empty empty 17 7 0 10 -262144 -1 -1 0
1;
#X floatatom 124 308 5 0 0 0 - - -;
#X obj 124 367 line;
#X floatatom 124 388 5 0 0 0 - - accel_reverb;
#X obj 109 137 > 0;
#X floatatom 78 90 5 0 0 0 - - -;
#X msg 124 346 \$1 200;
#X obj 78 69 + 0.2;
#X floatatom 265 38 5 0 0 0 - accelY_raw -;
#X obj 270 172 spigot;
#X obj 303 151 tgl 15 0 empty empty empty 17 7 0 10 -262144 -1 -1 0
1;
#X floatatom 272 242 5 0 0 0 - - -;
#X obj 365 207 * -1;
#X floatatom 365 240 5 0 0 0 - - -;
#X obj 394 120 < 0;
#X obj 366 167 spigot;
#X obj 394 143 tgl 15 0 empty empty empty 17 7 0 10 -262144 -1 -1 0
1;
#X floatatom 311 300 5 0 0 0 - - -;
#X obj 311 359 line;
#X floatatom 311 380 5 0 0 0 - - accel_reverb;
#X obj 296 129 > 0;
#X floatatom 265 82 5 0 0 0 - - -;
#X msg 311 338 \$1 200;
#X obj 265 61 + 0.2;
#X floatatom 449 39 5 0 0 0 - accelZ_raw -;
#X obj 454 173 spigot;
#X obj 487 152 tgl 15 0 empty empty empty 17 7 0 10 -262144 -1 -1 0
1;
#X floatatom 456 243 5 0 0 0 - - -;
#X obj 549 208 * -1;
#X floatatom 549 241 5 0 0 0 - - -;
#X obj 583 128 < 0;
#X obj 550 168 spigot;
#X obj 583 150 tgl 15 0 empty empty empty 17 7 0 10 -262144 -1 -1 0
1;
#X floatatom 495 301 5 0 0 0 - - -;
#X obj 495 360 line;
#X floatatom 495 381 5 0 0 0 - - accel_reverb;
#X obj 480 130 > 0;
#X floatatom 449 83 5 0 0 0 - - -;
#X msg 495 339 \$1 200;
#X obj 449 62 + 0.2;
#X obj 242 488 expr $f1+$f2+$f3;
#X floatatom 228 546 5 0 0 0 - - -;
#X obj 360 590 autoscale;
#X obj 395 480 loadbang;
#X obj 447 440 bng 15 250 50 0 empty empty empty 17 7 0 10 -262144
-1 -1;
#X msg 425 524 1;
#X floatatom 517 606 5 0 0 0 - - -;
#X obj 517 627 * -1;
#X floatatom 517 649 5 0 0 0 - - accel_metro;
#X obj 517 584 autoscale -1000 -50;
#X msg 462 525 6;
#X connect 0 0 15 0;
#X connect 1 0 3 0;
#X connect 2 0 1 1;
#X connect 3 0 9 0;
#X connect 4 0 5 0;
#X connect 5 0 9 0;
#X connect 6 0 8 0;
#X connect 7 0 4 0;
#X connect 8 0 7 1;
#X connect 9 0 14 0;
#X connect 9 0 48 0;
#X connect 10 0 11 0;
#X connect 12 0 2 0;
#X connect 13 0 12 0;
#X connect 13 0 1 0;
#X connect 13 0 6 0;
#X connect 13 0 7 0;
#X connect 14 0 10 0;
#X connect 15 0 13 0;
#X connect 16 0 31 0;
#X connect 17 0 19 0;
#X connect 18 0 17 1;
#X connect 19 0 25 0;
#X connect 20 0 21 0;
#X connect 21 0 25 0;
#X connect 22 0 24 0;
#X connect 23 0 20 0;
#X connect 24 0 23 1;
#X connect 25 0 30 0;
#X connect 25 0 48 1;
#X connect 26 0 27 0;
#X connect 28 0 18 0;
#X connect 29 0 28 0;
#X connect 29 0 17 0;
#X connect 29 0 22 0;
#X connect 29 0 23 0;
#X connect 30 0 26 0;
#X connect 31 0 29 0;
#X connect 32 0 47 0;
#X connect 33 0 35 0;
#X connect 34 0 33 1;
#X connect 35 0 41 0;
#X connect 36 0 37 0;
#X connect 37 0 41 0;
#X connect 38 0 40 0;
#X connect 39 0 36 0;
#X connect 40 0 39 1;
#X connect 41 0 46 0;
#X connect 41 0 48 2;
#X connect 42 0 43 0;
#X connect 44 0 34 0;
#X connect 45 0 44 0;
#X connect 45 0 33 0;
#X connect 45 0 38 0;
#X connect 45 0 39 0;
#X connect 46 0 42 0;
#X connect 47 0 45 0;
#X connect 48 0 49 0;
#X connect 49 0 57 0;
#X connect 51 0 53 0;
#X connect 51 0 58 0;
#X connect 52 0 53 0;
#X connect 52 0 58 0;
#X connect 53 0 57 0;
#X connect 54 0 55 0;
#X connect 55 0 56 0;
#X connect 57 0 54 0;
#X connect 58 0 57 0;
#X restore 491 160 pd accel_all_note;
#N canvas 267 198 383 452 rueda 0;
#X floatatom 75 89 5 0 0 2 motionRoll_raw motionRoll_raw -;
#X floatatom 223 91 5 0 0 2 motionPitch_raw motionPitch_raw -;
#X obj 110 131 expr $f1 + $f2;
#X floatatom 110 151 5 0 0 0 - - -;
#X obj 75 108 abs;
#X obj 223 111 abs;
#X floatatom 164 311 5 0 0 0 - - -;
#X obj 158 169 expr $f1 * -1;
#X obj 269 258 spigot;
#X obj 302 219 < 0;
#X obj 302 240 tgl 15 0 empty empty empty 17 7 0 10 -262144 -1 -1 0
1;
#X obj 144 270 spigot;
#X obj 177 252 tgl 15 0 empty empty empty 17 7 0 10 -262144 -1 -1 0
1;
#X obj 177 231 == 0;
#X floatatom 158 189 5 0 0 0 - - -;
#X obj 164 331 expr $f1 + 4.5;
#X floatatom 164 352 5 0 0 0 - - -;
#X obj 164 371 * 2.5;
#X floatatom 165 393 5 0 0 3 motion_rueda - motion_rueda;
#X text 84 49 Algoritmo utilizando valores Motion;
#X connect 0 0 4 0;
#X connect 1 0 5 0;
#X connect 1 0 9 0;
#X connect 2 0 3 0;
#X connect 3 0 7 0;
#X connect 3 0 11 0;
#X connect 4 0 2 0;
#X connect 5 0 2 1;
#X connect 6 0 15 0;
#X connect 7 0 14 0;
#X connect 8 0 6 0;
#X connect 9 0 10 0;
#X connect 10 0 8 1;
#X connect 10 0 13 0;
#X connect 11 0 6 0;
#X connect 12 0 11 1;
#X connect 13 0 12 0;
#X connect 14 0 8 0;
#X connect 15 0 16 0;
#X connect 16 0 17 0;
#X connect 17 0 18 0;
#X restore 491 95 pd rueda;
#N canvas 430 144 796 587 compass_rueda 0;
#X obj 367 270 f;
#X obj 290 108 bng 15 250 50 0 empty empty empty 17 7 0 10 -262144
-1 -1;
#X obj 278 23 tgl 15 0 empty empty empty 17 7 0 10 -262144 -1 -1 0
1;
#X obj 304 61 loadbang;
#X floatatom 357 318 5 0 0 0 - - -;
#X obj 293 85 metro 10;
#X floatatom 417 13 5 0 0 0 - - -;
#X obj 367 149 count 2;
#X floatatom 367 171 5 0 0 0 - - -;
#X obj 367 213 sel 0 1;
#X obj 367 242 bng 15 250 50 0 empty empty empty 17 7 0 10 -262144
-1 -1;
#X obj 390 242 bng 15 250 50 0 empty empty empty 17 7 0 10 -262144
-1 -1;
#X floatatom 294 244 5 0 0 2 compass_raw compass_raw -;
#X obj 390 270 f;
#X floatatom 399 318 5 0 0 0 - - -;
#X obj 345 354 expr $f1-$f2;
#X floatatom 341 387 5 0 0 0 - - -;
#X obj 513 416 tgl 15 0 empty empty empty 17 7 0 10 -262144 -1 -1 0
1;
#X obj 501 384 <;
#X obj 446 354 f;
#X obj 479 354 f;
#X obj 474 312 bng 15 250 50 0 empty empty empty 17 7 0 10 -262144
-1 -1;
#X obj 365 441 spigot;
#X obj 401 397 == 0;
#X obj 400 421 tgl 15 0 empty empty empty 17 7 0 10 -262144 -1 -1 1
1;
#X floatatom 347 471 5 0 0 0 - - -;
#X obj 451 458 spigot;
#X obj 451 480 expr $f1+360;
#X floatatom 455 506 5 0 0 0 - - -;
#X obj 477 289 metro 10;
#X floatatom 341 514 5 0 0 0 - - -;
#X connect 0 0 4 0;
#X connect 1 0 7 0;
#X connect 2 0 5 0;
#X connect 2 0 29 0;
#X connect 3 0 5 0;
#X connect 4 0 15 0;
#X connect 4 0 19 0;
#X connect 5 0 1 0;
#X connect 6 0 5 1;
#X connect 7 0 8 0;
#X connect 8 0 9 0;
#X connect 9 0 10 0;
#X connect 9 1 11 0;
#X connect 10 0 0 0;
#X connect 11 0 13 0;
#X connect 12 0 0 1;
#X connect 12 0 13 1;
#X connect 13 0 14 0;
#X connect 14 0 15 1;
#X connect 14 0 20 0;
#X connect 15 0 16 0;
#X connect 16 0 22 0;
#X connect 16 0 26 0;
#X connect 17 0 23 0;
#X connect 17 0 26 1;
#X connect 18 0 17 0;
#X connect 19 0 18 1;
#X connect 20 0 18 0;
#X connect 21 0 19 1;
#X connect 21 0 20 1;
#X connect 22 0 25 0;
#X connect 23 0 24 0;
#X connect 24 0 22 1;
#X connect 25 0 30 0;
#X connect 26 0 27 0;
#X connect 27 0 28 0;
#X connect 28 0 30 0;
#X connect 29 0 21 0;
#X restore 491 182 pd compass_rueda;
#X text 487 51 algunos experimentos y conversiones de valores;
#X connect 0 0 2 0;
#X connect 0 0 9 0;
#X connect 1 0 4 0;
#X connect 1 0 6 0;
#X connect 2 0 3 0;
#X connect 4 0 5 0;
#X connect 6 0 7 0;
#X connect 7 0 17 0;
#X connect 8 0 9 0;
#X connect 9 0 10 0;
#X connect 10 0 11 0;
#X connect 17 0 12 0;
#X connect 17 0 18 0;
#X connect 18 0 13 0;
#X restore 32 456 pd value_changes;
#X obj -275 22 hsl 350 30 100 3000 0 0 empty empty granular_window_width
-2 -12 0 20 -260097 -262144 -1 0 1;
#X obj -278 53 int;
#X floatatom -278 70 5 0 0 0 - - granular_width;
#X obj -276 139 hsl 350 30 -36 36 0 0 empty empty granular_transposition
-2 -12 0 20 -260097 -262144 -1 0 1;
#X obj -279 170 int;
#X floatatom -279 188 5 0 0 0 - - granular_transposition;
#X obj -140 342 cnv 15 220 55 empty empty empty 20 12 0 14 -159808
-33289 0;
#X msg -132 350 \; pd dsp 1;
#X msg -63 350 \; pd dsp 0;
#X text -115 379 ON;
#X text -46 379 OFF;
#X obj 311 374 *~;
#X obj -273 -61 hsl 350 30 0 1 0 0 empty empty granular_volume -2 -12
0 20 -260097 -262144 -1 0 1;
#X floatatom -276 -30 5 0 0 0 - - granular_volume;
#X obj -274 -138 hsl 350 30 0 1 0 0 empty empty clean_volume -2 -12
0 20 -4034 -1 -1 0 1;
#X floatatom -277 -107 5 0 0 0 - - dry_volume;
#X obj 343 -47 hsl 200 15 0 100 0 0 empty empty reverb_volume_granular
-2 -12 0 15 -4032 -1 -4160 0 1;
#X obj 340 -31 int;
#X floatatom 340 -13 5 0 0 0 - - reverb_volume_L;
#X obj 342 42 hsl 200 15 0 100 0 0 empty empty reverb_liveness -2 -12
0 12 -4032 -1 -1 0 1;
#X obj 339 58 int;
#X floatatom 339 76 5 0 0 0 - - reverb_liveness_L;
#X obj 342 134 hsl 200 15 0 4000 0 0 empty empty reverb_cutoff -2 -12
0 12 -4032 -1 -1 0 1;
#X obj 339 150 int;
#X floatatom 339 168 5 0 0 0 - - reverb_cutoff_L;
#X obj 339 226 hsl 200 15 0 100 0 0 empty empty reverb_damping -2 -12
0 12 -4032 -1 -1 0 1;
#X obj 336 242 int;
#X floatatom 336 260 5 0 0 0 - - reverb_damping_L;
#N canvas 718 460 450 300 cpu 0;
#X obj 134 263 outlet;
#X obj 128 178 cputime;
#X obj 128 38 loadbang;
#X obj 128 122 metro 1000;
#X msg 128 66 1;
#X floatatom 128 94 0 0 0 0 - - -;
#X obj 128 150 t b b;
#X obj 128 238 * 0.1;
#X obj 128 207 int;
#X text 173 94 <-- on/off;
#X connect 1 0 8 0;
#X connect 2 0 4 0;
#X connect 3 0 6 0;
#X connect 4 0 5 0;
#X connect 5 0 3 0;
#X connect 6 0 1 0;
#X connect 6 1 1 1;
#X connect 7 0 0 0;
#X connect 8 0 7 0;
#X restore 26 347 pd cpu;
#X floatatom 26 369 5 0 0 0 - - -;
#X floatatom -279 103 5 0 0 0 - gyropitch_bend -;
#X obj 104 -45 hsl 200 15 0 100 0 0 empty empty reverb_volume_clean
-2 -12 0 15 -228856 -1 -1 0 1;
#X obj 101 -29 int;
#X floatatom 101 -11 5 0 0 0 - - reverb_volume_R;
#X obj 109 45 hsl 200 15 0 100 0 0 empty empty reverb_liveness -2 -12
0 12 -228856 -1 -1 0 1;
#X obj 106 61 int;
#X floatatom 106 79 5 0 0 0 - - reverb_liveness_R;
#X obj 109 137 hsl 200 15 0 4000 0 0 empty empty reverb_cutoff -2 -12
0 12 -228856 -1 -1 0 1;
#X obj 106 153 int;
#X floatatom 106 171 5 0 0 0 - - reverb_cutoff_R;
#X obj 106 229 hsl 200 15 0 100 0 0 empty empty reverb_damping -2 -12
0 12 -228856 -1 -1 0 1;
#X obj 103 245 int;
#X floatatom 103 263 5 0 0 0 - - reverb_damping_R;
#N canvas 34 276 450 300 presets 0;
#X msg 72 94 100;
#X obj 72 71 loadbang;
#X obj 72 117 outlet;
#X connect 0 0 2 0;
#X connect 1 0 0 0;
#X restore -336 -7 pd presets;
#N canvas 629 197 391 439 chord_maker 0;
#X obj 108 110 line;
#X floatatom 108 131 5 0 0 0 - - -;
#X obj 196 207 int;
#X obj 196 168 f;
#X floatatom 196 189 5 0 0 0 - - -;
#X obj 218 144 bng 15 250 50 0 empty empty empty 17 7 0 10 -262144
-1 -1;
#X obj 216 65 tgl 15 0 empty empty empty 17 7 0 10 -262144 -1 -1 0
1;
#X floatatom 196 251 5 0 0 0 - - chord_note_2;
#X obj 236 64 loadbang;
#X msg 108 89 \$1 20;
#X obj 218 88 metro 10;
#X floatatom 108 70 5 0 0 2 motion_rueda motion_rueda -;
#N canvas 245 131 959 301 chord_messages 0;
#X obj 437 130 bng 15 250 50 0 empty empty empty 17 7 0 10 -262144
-1 -1;
#X obj 468 130 bng 15 250 50 0 empty empty empty 17 7 0 10 -262144
-1 -1;
#X obj 497 130 bng 15 250 50 0 empty empty empty 17 7 0 10 -262144
-1 -1;
#X obj 527 130 bng 15 250 50 0 empty empty empty 17 7 0 10 -262144
-1 -1;
#X obj 559 130 bng 15 250 50 0 empty empty empty 17 7 0 10 -262144
-1 -1;
#X obj 591 130 bng 15 250 50 0 empty empty empty 17 7 0 10 -262144
-1 -1;
#X obj 621 130 bng 15 250 50 0 empty empty empty 17 7 0 10 -262144
-1 -1;
#X obj 179 130 bng 15 250 50 0 empty empty empty 17 7 0 10 -262144
-1 -1;
#X obj 210 130 bng 15 250 50 0 empty empty empty 17 7 0 10 -262144
-1 -1;
#X obj 245 130 bng 15 250 50 0 empty empty empty 17 7 0 10 -262144
-1 -1;
#X obj 277 130 bng 15 250 50 0 empty empty empty 17 7 0 10 -262144
-1 -1;
#X obj 311 130 bng 15 250 50 0 empty empty empty 17 7 0 10 -262144
-1 -1;
#X obj 344 130 bng 15 250 50 0 empty empty empty 17 7 0 10 -262144
-1 -1;
#X obj 378 130 bng 15 250 50 0 empty empty empty 17 7 0 10 -262144
-1 -1;
#X obj 650 130 bng 15 250 50 0 empty empty empty 17 7 0 10 -262144
-1 -1;
#X obj 680 130 bng 15 250 50 0 empty empty empty 17 7 0 10 -262144
-1 -1;
#X obj 708 130 bng 15 250 50 0 empty empty empty 17 7 0 10 -262144
-1 -1;
#X obj 738 130 bng 15 250 50 0 empty empty empty 17 7 0 10 -262144
-1 -1;
#X obj 769 130 bng 15 250 50 0 empty empty empty 17 7 0 10 -262144
-1 -1;
#X obj 798 130 bng 15 250 50 0 empty empty empty 17 7 0 10 -262144
-1 -1;
#X obj 826 130 bng 15 250 50 0 empty empty empty 17 7 0 10 -262144
-1 -1;
#X msg 180 149 48;
#X msg 210 149 50;
#X msg 245 149 52;
#X msg 276 149 53;
#X msg 311 149 55;
#X msg 344 149 57;
#X msg 378 149 59;
#X msg 437 149 62;
#X msg 468 149 64;
#X msg 497 149 65;
#X msg 527 149 67;
#X msg 559 149 69;
#X msg 591 149 71;
#X msg 621 149 72;
#X msg 650 149 74;
#X msg 680 149 76;
#X msg 708 149 77;
#X msg 738 149 79;
#X msg 769 149 81;
#X msg 798 149 83;
#X msg 826 149 84;
#X obj 407 130 bng 15 250 50 0 empty empty empty 17 7 0 10 -262144
-1 -1;
#X msg 407 149 60;
#X obj -56 130 bng 15 250 50 0 empty empty empty 17 7 0 10 -262144
-1 -1;
#X obj -25 130 bng 15 250 50 0 empty empty empty 17 7 0 10 -262144
-1 -1;
#X obj 10 130 bng 15 250 50 0 empty empty empty 17 7 0 10 -262144 -1
-1;
#X obj 42 130 bng 15 250 50 0 empty empty empty 17 7 0 10 -262144 -1
-1;
#X obj 113 130 bng 15 250 50 0 empty empty empty 17 7 0 10 -262144
-1 -1;
#X obj 146 130 bng 15 250 50 0 empty empty empty 17 7 0 10 -262144
-1 -1;
#X msg -56 149 36;
#X msg -25 149 38;
#X msg 10 149 40;
#X msg 41 149 41;
#X msg 113 149 45;
#X msg 146 149 47;
#X obj 138 39 sel 0 1 2 3 4 5 6 7 8 9 10 11 12 13 14 15 16 17 18 19
20 21 22 23 24 25 26 27;
#X obj 304 255 mtof;
#X obj 79 130 bng 15 250 50 0 empty empty empty 17 7 0 10 -262144 -1
-1;
#X msg 78 149 43;
#X obj 138 18 inlet;
#X obj 304 275 outlet;
#X connect 0 0 28 0;
#X connect 1 0 29 0;
#X connect 2 0 30 0;
#X connect 3 0 31 0;
#X connect 4 0 32 0;
#X connect 5 0 33 0;
#X connect 6 0 34 0;
#X connect 7 0 21 0;
#X connect 8 0 22 0;
#X connect 9 0 23 0;
#X connect 10 0 24 0;
#X connect 11 0 25 0;
#X connect 12 0 26 0;
#X connect 13 0 27 0;
#X connect 14 0 35 0;
#X connect 15 0 36 0;
#X connect 16 0 37 0;
#X connect 17 0 38 0;
#X connect 18 0 39 0;
#X connect 19 0 40 0;
#X connect 20 0 41 0;
#X connect 21 0 57 0;
#X connect 22 0 57 0;
#X connect 23 0 57 0;
#X connect 24 0 57 0;
#X connect 25 0 57 0;
#X connect 26 0 57 0;
#X connect 27 0 57 0;
#X connect 28 0 57 0;
#X connect 29 0 57 0;
#X connect 30 0 57 0;
#X connect 31 0 57 0;
#X connect 32 0 57 0;
#X connect 33 0 57 0;
#X connect 34 0 57 0;
#X connect 35 0 57 0;
#X connect 36 0 57 0;
#X connect 37 0 57 0;
#X connect 38 0 57 0;
#X connect 39 0 57 0;
#X connect 40 0 57 0;
#X connect 41 0 57 0;
#X connect 42 0 43 0;
#X connect 43 0 57 0;
#X connect 44 0 50 0;
#X connect 45 0 51 0;
#X connect 46 0 52 0;
#X connect 47 0 53 0;
#X connect 48 0 54 0;
#X connect 49 0 55 0;
#X connect 50 0 57 0;
#X connect 51 0 57 0;
#X connect 52 0 57 0;
#X connect 53 0 57 0;
#X connect 54 0 57 0;
#X connect 55 0 57 0;
#X connect 56 0 44 0;
#X connect 56 1 45 0;
#X connect 56 2 46 0;
#X connect 56 3 47 0;
#X connect 56 4 58 0;
#X connect 56 5 48 0;
#X connect 56 6 49 0;
#X connect 56 7 7 0;
#X connect 56 8 8 0;
#X connect 56 9 9 0;
#X connect 56 10 10 0;
#X connect 56 11 11 0;
#X connect 56 12 12 0;
#X connect 56 13 13 0;
#X connect 56 14 42 0;
#X connect 56 15 0 0;
#X connect 56 16 1 0;
#X connect 56 17 2 0;
#X connect 56 18 3 0;
#X connect 56 19 4 0;
#X connect 56 20 5 0;
#X connect 56 21 6 0;
#X connect 56 22 14 0;
#X connect 56 23 15 0;
#X connect 56 24 16 0;
#X connect 56 25 17 0;
#X connect 56 26 18 0;
#X connect 56 27 19 0;
#X connect 56 28 20 0;
#X connect 57 0 61 0;
#X connect 58 0 59 0;
#X connect 59 0 57 0;
#X connect 60 0 56 0;
#X restore 196 229 pd chord_messages;
#X connect 0 0 1 0;
#X connect 1 0 3 1;
#X connect 2 0 12 0;
#X connect 3 0 4 0;
#X connect 4 0 2 0;
#X connect 5 0 3 0;
#X connect 6 0 10 0;
#X connect 8 0 10 0;
#X connect 9 0 0 0;
#X connect 10 0 5 0;
#X connect 11 0 9 0;
#X connect 12 0 7 0;
#X restore -169 455 pd chord_maker;
#X obj -169 477 cnv 15 300 20 empty empty empty 20 12 0 14 -257985
-66577 0;
#X text -55 478 NO TOCAR;
#X obj -140 396 cnv 15 220 30 empty empty empty 20 12 0 14 -262130
-33289 0;
#X msg -132 402 port 54326;
#X text -60 402 INPUT PORT;
#X connect 0 0 8 0;
#X connect 1 0 0 0;
#X connect 2 0 5 0;
#X connect 2 1 22 0;
#X connect 3 0 5 1;
#X connect 3 0 22 1;
#X connect 4 0 3 0;
#X connect 5 0 6 0;
#X connect 8 0 7 0;
#X connect 11 0 12 0;
#X connect 12 0 13 0;
#X connect 14 0 15 0;
#X connect 15 0 16 0;
#X connect 22 0 6 1;
#X connect 23 0 24 0;
#X connect 25 0 26 0;
#X connect 27 0 28 0;
#X connect 28 0 29 0;
#X connect 30 0 31 0;
#X connect 31 0 32 0;
#X connect 33 0 34 0;
#X connect 34 0 35 0;
#X connect 36 0 37 0;
#X connect 37 0 38 0;
#X connect 39 0 40 0;
#X connect 41 0 14 0;
#X connect 42 0 43 0;
#X connect 43 0 44 0;
#X connect 45 0 46 0;
#X connect 46 0 47 0;
#X connect 48 0 49 0;
#X connect 49 0 50 0;
#X connect 51 0 52 0;
#X connect 52 0 53 0;
#X connect 54 0 11 0;
#X connect 59 0 9 0;
