#N canvas 161 39 1151 766 10;
#X obj 58 22 receive fromGUI;
#X floatatom 55 142 5 0 0 0 - - -;
#X obj 55 277 send toGUI;
#X obj 205 355 send toSystem;
#X obj 651 -19 receive fromSystem;
#X obj 644 274 send toGUI;
#X msg 214 230 list /setAccelFrequency \$1 \, list /setGyroFrequency
\$1 \, list /setMotionFrequency \$1;
#X obj 179 193 t b f;
#X msg 160 267 list /getAccelFrequency \, list /getGyroFrequency \,
list /getMotionFrequency;
#X msg 55 190 list /rateLabel \$1;
#X obj 54 116 expr $f1*10+5;
#N canvas 0 22 834 545 speedlim 0;
#X msg 83 139 1;
#X obj 57 164 spigot 1;
#X obj 87 93 t b b;
#X msg 112 139 0;
#X obj 85 115 delay 200;
#X obj 60 49 inlet;
#X obj 59 213 outlet;
#X connect 0 0 1 1;
#X connect 1 0 2 0;
#X connect 1 0 6 0;
#X connect 2 0 4 0;
#X connect 2 1 3 0;
#X connect 3 0 1 1;
#X connect 4 0 0 0;
#X connect 5 0 1 0;
#X restore 655 106 pd speedlim;
#N canvas 0 22 834 545 speedlim 0;
#X msg 83 139 1;
#X obj 57 164 spigot 1;
#X obj 87 93 t b b;
#X msg 112 139 0;
#X obj 85 115 delay 200;
#X obj 60 49 inlet;
#X obj 59 213 outlet;
#X connect 0 0 1 1;
#X connect 1 0 2 0;
#X connect 1 0 6 0;
#X connect 2 0 4 0;
#X connect 2 1 3 0;
#X connect 3 0 1 1;
#X connect 4 0 0 0;
#X connect 5 0 1 0;
#X restore 668 132 pd speedlim;
#N canvas 0 22 834 545 speedlim 0;
#X msg 83 139 1;
#X obj 57 164 spigot 1;
#X obj 87 93 t b b;
#X msg 112 139 0;
#X obj 85 115 delay 200;
#X obj 60 49 inlet;
#X obj 59 213 outlet;
#X connect 0 0 1 1;
#X connect 1 0 2 0;
#X connect 1 0 6 0;
#X connect 2 0 4 0;
#X connect 2 1 3 0;
#X connect 3 0 1 1;
#X connect 4 0 0 0;
#X connect 5 0 1 0;
#X restore 742 104 pd speedlim;
#N canvas 0 22 834 545 speedlim 0;
#X msg 83 139 1;
#X obj 57 164 spigot 1;
#X obj 87 93 t b b;
#X msg 112 139 0;
#X obj 85 115 delay 200;
#X obj 60 49 inlet;
#X obj 59 213 outlet;
#X connect 0 0 1 1;
#X connect 1 0 2 0;
#X connect 1 0 6 0;
#X connect 2 0 4 0;
#X connect 2 1 3 0;
#X connect 3 0 1 1;
#X connect 4 0 0 0;
#X connect 5 0 1 0;
#X restore 757 130 pd speedlim;
#X msg 672 195 list /accelLabel x: \$1 y: \$2 z: \$3;
#X msg 689 217 list /gyroLabel roll: \$1 pitch: \$2 yaw: \$3;
#X msg 709 241 list /motionLabel roll: \$1 pitch: \$2 yaw: \$3;
#X obj 300 164 send toGUI;
#X obj 298 89 t l b;
#X obj 298 24 unpack 0 0 0;
#X obj 297 53 pack 0 0 1;
#X obj 53 83 route /rateSlider /sourceGrid;
#X obj 299 117 list prepend /sourceGrid set;
#X msg 337 139 list /sourceGrid clear;
#X text 647 89 custom abstraction to slow down message rate to GUI
;
#X text 861 20 last few return the current update freq;
#X text 297 1 trick to use grid like radio buttons;
#X text 263 299 this messages is requesting the update freqs \, sent
from system;
#X obj 56 54 list trim;
#X obj 650 10 list trim;
#X msg 365 360 list /getMotionFrequency;
#X obj 360 331 loadbang;
#X obj 576 685 send toNetwork;
#X msg 652 172 list /tiltLabel x: \$1 y: \$2;
#X obj 601 531 unpack 0 0;
#X obj 674 532 unpack 0 0 0;
#X obj 763 531 unpack 0 0 0;
#X obj 848 531 unpack 0 0 0;
#X obj 577 619 list;
#X obj 533 498 loadbang;
#X text 617 624 store the constantly-updated list.;
#X text 358 620 send out list every N milliseconds;
#X obj 575 653 list prepend /allsensors;
#X obj 728 694 print;
#X obj 532 533 metro 50;
#X obj 655 39 route /tilts /accel /gyro /motion /compass /accelFrequency
/gyroFrequency /motionFrequency;
#X msg 335 423 list /enableLocation 1;
#X obj 600 589 pack 0 0 0 0 0 0 0 0 0 0 0 0;
#X connect 0 0 29 0;
#X connect 1 0 9 0;
#X connect 1 0 7 0;
#X connect 4 0 30 0;
#X connect 6 0 3 0;
#X connect 7 0 8 0;
#X connect 7 1 6 0;
#X connect 8 0 3 0;
#X connect 9 0 2 0;
#X connect 10 0 1 0;
#X connect 11 0 34 0;
#X connect 12 0 15 0;
#X connect 13 0 16 0;
#X connect 14 0 17 0;
#X connect 15 0 5 0;
#X connect 16 0 5 0;
#X connect 17 0 5 0;
#X connect 19 0 23 0;
#X connect 19 1 24 0;
#X connect 20 0 21 0;
#X connect 20 1 21 1;
#X connect 21 0 19 0;
#X connect 22 0 10 0;
#X connect 22 1 20 0;
#X connect 23 0 18 0;
#X connect 24 0 18 0;
#X connect 29 0 22 0;
#X connect 30 0 46 0;
#X connect 31 0 3 0;
#X connect 32 0 31 0;
#X connect 32 0 47 0;
#X connect 34 0 5 0;
#X connect 35 0 48 0;
#X connect 35 1 48 1;
#X connect 36 0 48 2;
#X connect 36 1 48 3;
#X connect 36 2 48 4;
#X connect 37 0 48 5;
#X connect 37 1 48 6;
#X connect 37 2 48 7;
#X connect 38 0 48 8;
#X connect 38 1 48 9;
#X connect 38 2 48 10;
#X connect 39 0 43 0;
#X connect 40 0 45 0;
#X connect 43 0 33 0;
#X connect 43 0 44 0;
#X connect 45 0 39 0;
#X connect 46 0 11 0;
#X connect 46 0 35 0;
#X connect 46 1 12 0;
#X connect 46 1 36 0;
#X connect 46 2 13 0;
#X connect 46 2 37 0;
#X connect 46 3 14 0;
#X connect 46 3 38 0;
#X connect 46 4 48 11;
#X connect 47 0 3 0;
#X connect 48 0 39 1;
